<svg xmlns="http://www.w3.org/2000/svg" xmlns:xlink="http://www.w3.org/1999/xlink" width="32.4" height="36" viewBox="0 0 32.4 36">
  <defs>
    <filter id="verified_user_FILL1_wght400_GRAD0_opsz24" x="0" y="0" width="32.4" height="36" filterUnits="userSpaceOnUse">
      <feOffset dy="3" input="SourceAlpha"/>
      <feGaussianBlur stdDeviation="3" result="blur"/>
      <feFlood flood-opacity="0.161"/>
      <feComposite operator="in" in2="blur"/>
      <feComposite in="SourceGraphic"/>
    </filter>
  </defs>
  <g transform="matrix(1, 0, 0, 1, 0, 0)" filter="url(#verified_user_FILL1_wght400_GRAD0_opsz24)">
    <path id="verified_user_FILL1_wght400_GRAD0_opsz24-2" data-name="verified_user_FILL1_wght400_GRAD0_opsz24" d="M166.255-867.805l5.085-5.085-1.283-1.283-3.8,3.8-1.89-1.89-1.283,1.282ZM167.2-862a8.967,8.967,0,0,1-5.164-3.589A10.336,10.336,0,0,1,160-871.81v-5.49l7.2-2.7,7.2,2.7v5.49a10.336,10.336,0,0,1-2.036,6.221A8.967,8.967,0,0,1,167.2-862Z" transform="translate(-151 886)" fill="#313543"/>
  </g>
</svg>
